# xmcd
#
# Track frame offsets:
#	150
#	11317
#	23307
#	36222
#	49554
#	62064
#	75191
#	85284
#	97470
#	114152
#	128672
#	143144
#	154427
#	172426
#	190035
#
# Disc length: 2550 seconds
#
# Revision: 1
# Processed by: cddbd v1.5.1PL0 Copyright (c) Steve Scherf et al.
# Submitted via: audiograbber 1.83.01
#
DISCID=b809f40f
DTITLE=Philomena Begley - Reflections
DYEAR=1900
DGENRE=Country
TTITLE0=Have you ever been lonely?
TTITLE1=Hillbilly Girl with the Blues
TTITLE2=Daddy and Home
TTITLE3=I'm so afraid of losing you again  and Ray Lynam
TTITLE4=Too young
TTITLE5=Little grey Home in the West
TTITLE6=Heartaches
TTITLE7=Carolina Moon
TTITLE8=A pal like Mother =Tribute to Mary Jane
TTITLE9=After all these Years
TTITLE10=My Tears will tell my Heart
TTITLE11=When two worlds collide
TTITLE12=God i love you
TTITLE13=Breath in my Body
TTITLE14=Undeffinierbarer Track
EXTD=
EXTT0=
EXTT1=
EXTT2=
EXTT3=
EXTT4=
EXTT5=
EXTT6=
EXTT7=
EXTT8=
EXTT9=
EXTT10=
EXTT11=
EXTT12=
EXTT13=
EXTT14=
PLAYORDER=
